<svg viewBox="0 0 1200 630" xmlns="http://www.w3.org/2000/svg" font-family="sans-serif">
  <rect width="1200" height="630" fill="#0f1f3d"/>
  <rect width="1200" height="5" fill="#2563a8"/>
  <pattern id="grid" width="60" height="60" patternUnits="userSpaceOnUse">
    <path d="M 60 0 L 0 0 0 60" fill="none" stroke="rgba(255,255,255,0.03)" stroke-width="1"/>
  </pattern>
  <rect width="1200" height="630" fill="url(#grid)"/>
  <circle cx="980" cy="315" r="340" fill="none" stroke="rgba(74,144,217,0.08)" stroke-width="1"/>
  <circle cx="980" cy="315" r="240" fill="none" stroke="rgba(74,144,217,0.06)" stroke-width="1"/>
  <circle cx="980" cy="315" r="140" fill="none" stroke="rgba(74,144,217,0.05)" stroke-width="1"/>
  <g transform="translate(120, 215) scale(5.5)">
    <path d="M18 4 C10 4 4 11 4 19 C4 25 7 30 12 33 L12 40 L18 43 L24 40 L24 33 C29 30 32 25 32 19 C32 11 26 4 18 4Z" fill="#4a90d9"/>
    <line x1="18" y1="6" x2="18" y2="40" stroke="rgba(255,255,255,0.3)" stroke-width="1.2" stroke-linecap="round"/>
    <line x1="18" y1="16" x2="26" y2="13" stroke="rgba(255,255,255,0.25)" stroke-width="0.9" stroke-linecap="round"/>
    <line x1="18" y1="22" x2="10" y2="20" stroke="rgba(255,255,255,0.25)" stroke-width="0.9" stroke-linecap="round"/>
    <line x1="18" y1="28" x2="25" y2="26" stroke="rgba(255,255,255,0.2)" stroke-width="0.8" stroke-linecap="round"/>
    <rect x="16" y="38" width="4" height="5" rx="1" fill="rgba(255,255,255,0.2)"/>
  </g>
  <text x="360" y="260" fill="#ffffff" font-size="88" font-weight="800" letter-spacing="6" text-anchor="start">EIK</text>
  <text x="532" y="260" fill="#4a90d9" font-size="88" font-weight="800" letter-spacing="6" text-anchor="start">&amp;</text>
  <text x="600" y="260" fill="#ffffff" font-size="88" font-weight="800" letter-spacing="6" text-anchor="start">STONE</text>
  <rect x="360" y="285" width="580" height="2" fill="rgba(74,144,217,0.4)" rx="1"/>
  <text x="360" y="340" fill="rgba(255,255,255,0.5)" font-size="26" letter-spacing="4" text-anchor="start">CHARLOTTETOWN, PEI · EST. 2018</text>
  <text x="360" y="410" fill="rgba(255,255,255,0.25)" font-size="20" letter-spacing="3" text-anchor="start">CUSTOM BUILDS · RENOVATION · COMMERCIAL</text>
</svg>